<?xml version="1.0" encoding="UTF-8"?>
<svg version="1.1" xmlns="http://www.w3.org/2000/svg" width="100" height="100">
<path d="M0 0 C0.99 0.33 1.98 0.66 3 1 C5.2012966 5.75016635 5.1765235 9.88081854 5 15 C9.12168689 16.62950412 11.70700357 17.26264601 16 16 C16.495 17.98 16.495 17.98 17 20 C15.35 20.66 13.7 21.32 12 22 C13.65 22 15.3 22 17 22 C18.33333333 25.33333333 19.66666667 28.66666667 21 32 C22.10859375 31.97679688 23.2171875 31.95359375 24.359375 31.9296875 C25.82290992 31.91092423 27.28645214 31.89272463 28.75 31.875 C29.84441406 31.84986328 29.84441406 31.84986328 30.9609375 31.82421875 C34.8044624 31.78927761 37.74606772 31.82500316 41 34 C40.67 35.32 40.34 36.64 40 38 C29.605 38.495 29.605 38.495 19 39 C19 40.65 19 42.3 19 44 C18.03114628 45.68496298 17.03013277 47.35178756 16 49 C15.29329272 51.69254991 15.29329272 51.69254991 15 54 C14.01 54 13.02 54 12 54 C11.566875 54.928125 11.566875 54.928125 11.125 55.875 C10 58 10 58 8 60 C7.38527886 62.65594829 6.87502583 65.25206624 6.4375 67.9375 C6.30819092 68.69861084 6.17888184 69.45972168 6.0456543 70.24389648 C5.0719027 76.14060719 4.37373638 82.03310546 4 88 C0.25 89.125 0.25 89.125 -2 88 C-2.47070312 85.76269531 -2.47070312 85.76269531 -2.78125 82.828125 C-2.90113281 81.77109375 -3.02101562 80.7140625 -3.14453125 79.625 C-3.26183594 78.51125 -3.37914062 77.3975 -3.5 76.25 C-3.73315945 74.06701265 -3.97253104 71.88467796 -4.21875 69.703125 C-4.32123047 68.73020508 -4.42371094 67.75728516 -4.52929688 66.75488281 C-5.31853465 62.13571318 -6.63720749 59.2099383 -10 56 C-10 55.34 -10 54.68 -10 54 C-11.32 53.67 -12.64 53.34 -14 53 C-14.12375 51.88625 -14.2475 50.7725 -14.375 49.625 C-14.6465813 45.96896323 -14.6465813 45.96896323 -17 44 C-17 42.35 -17 40.7 -17 39 C-23.6 38.67 -30.2 38.34 -37 38 C-37.66 36.68 -38.32 35.36 -39 34 C-35.1584024 31.43219529 -31.1860825 31.77311118 -26.75 31.875 C-26.00492188 31.88402344 -25.25984375 31.89304687 -24.4921875 31.90234375 C-22.66131941 31.92581642 -20.83061762 31.96168475 -19 32 C-18.69320313 31.23300781 -18.38640625 30.46601562 -18.0703125 29.67578125 C-16.53515625 25.83789062 -16.53515625 25.83789062 -15 22 C-13.35 22 -11.7 22 -10 22 C-11.65 21.34 -13.3 20.68 -15 20 C-14.67 18.68 -14.34 17.36 -14 16 C-12.6696875 16.309375 -12.6696875 16.309375 -11.3125 16.625 C-7.7747289 17.02550239 -6.13367033 16.56683516 -3 15 C-3.061875 13.824375 -3.12375 12.64875 -3.1875 11.4375 C-3.21144173 6.96039699 -1.9879056 3.9758112 0 0 Z " fill="#FED04A" transform="translate(49,3)"/>
<path d="M0 0 C2.4375 0.125 2.4375 0.125 5 1 C5.66666667 2.66666667 6.33333333 4.33333333 7 6 C9.54775306 6.89386164 9.54775306 6.89386164 12 7 C12.226875 8.11375 12.45375 9.2275 12.6875 10.375 C13.57683359 14.0757934 13.57683359 14.0757934 16.15625 15.1875 C19.41513155 16.11860901 22.43089127 16.42005402 25.8125 16.625 C26.97394531 16.69976562 28.13539062 16.77453125 29.33203125 16.8515625 C30.21246094 16.90054688 31.09289062 16.94953125 32 17 C32 18.32 32 19.64 32 21 C28.37 21.33 24.74 21.66 21 22 C20.71125 23.0725 20.4225 24.145 20.125 25.25 C19.26006848 28.13310508 18.32278959 30.35442081 17 33 C16.62331656 34.65740715 16.27942455 36.32345271 16 38 C15.01 38 14.02 38 13 38 C12.814375 38.61875 12.62875 39.2375 12.4375 39.875 C11 42 11 42 7.8125 43.3125 C3.811082 44.03406718 0.94181609 43.94603586 -3 43 C-4 41 -4 41 -3.75 37.1875 C-3.6773754 33.53646314 -3.83361161 33.18772024 -6.4375 30.25 C-7.283125 29.5075 -8.12875 28.765 -9 28 C-9.2475 26.948125 -9.2475 26.948125 -9.5 25.875 C-9.85234349 23.69664981 -9.85234349 23.69664981 -12.5 22.4375 C-13.325 21.963125 -14.15 21.48875 -15 21 C-15.33 20.01 -15.66 19.02 -16 18 C-13.94766315 15.7522025 -12.99332739 14.9977758 -10 14 C-8.78130071 11.49552484 -8.78130071 11.49552484 -8 9 C-7.34 9 -6.68 9 -6 9 C-5.67 8.01 -5.34 7.02 -5 6 C-3.68 6 -2.36 6 -1 6 C-1.020625 5.195625 -1.04125 4.39125 -1.0625 3.5625 C-1 1 -1 1 0 0 Z " fill="#FFED6E" transform="translate(48,19)"/>
<path d="M0 0 C0.66 0 1.32 0 2 0 C2.061875 1.1446875 2.061875 1.1446875 2.125 2.3125 C2.41375 3.199375 2.7025 4.08625 3 5 C3.99 5.45375 4.98 5.9075 6 6.375 C6.99 6.91125 7.98 7.4475 9 8 C9.875 11.6875 9.875 11.6875 10 15 C12.475 15.495 12.475 15.495 15 16 C15 16.66 15 17.32 15 18 C14.21625 18.4125 13.4325 18.825 12.625 19.25 C9.29345359 21.47103094 9.18711325 23.28037848 8 27 C7.33613281 27.28488281 6.67226563 27.56976563 5.98828125 27.86328125 C5.33214844 28.23839844 4.67601563 28.61351563 4 29 C3.29823412 31.41679707 3.29823412 31.41679707 3.25 34.125 C3.19328125 35.03507812 3.1365625 35.94515625 3.078125 36.8828125 C3.05234375 37.58148438 3.0265625 38.28015625 3 39 C1.68 39 0.36 39 -1 39 C-1.01417969 38.31292969 -1.02835938 37.62585937 -1.04296875 36.91796875 C-1.18703393 34.19630501 -1.39463188 31.65929568 -2 29 C-4.37402417 27.19212694 -4.37402417 27.19212694 -7 26 C-7.69100553 24.00827818 -8.35902703 22.00838196 -9 20 C-11.00136244 18.57944932 -11.00136244 18.57944932 -13 18 C-13 17.34 -13 16.68 -13 16 C-11.35 15.67 -9.7 15.34 -8 15 C-7.95875 13.906875 -7.9175 12.81375 -7.875 11.6875 C-7.58625 10.470625 -7.2975 9.25375 -7 8 C-5.03384339 6.9349985 -3.03273074 5.93166826 -1 5 C-0.03093173 2.41585574 -0.03093173 2.41585574 0 0 Z " fill="#FFFFFF" transform="translate(49,21)"/>
<path d="M0 0 C2.4375 0.125 2.4375 0.125 5 1 C6.125 3.5 6.125 3.5 7 6 C7.99 6.33 8.98 6.66 10 7 C12.04108797 10.00791911 12.19878036 12.42195344 12 16 C13.65 16.33 15.3 16.66 17 17 C17 18.32 17 19.64 17 21 C15.68 20.67 14.36 20.34 13 20 C13.99 20 14.98 20 16 20 C16 19.34 16 18.68 16 18 C14.35 17.67 12.7 17.34 11 17 C10.79375 15.906875 10.5875 14.81375 10.375 13.6875 C9.34336062 9.7714341 9.34336062 9.7714341 5.875 8.0625 C4.92625 7.711875 3.9775 7.36125 3 7 C3 5.35 3 3.7 3 2 C2.34 2 1.68 2 1 2 C1 3.65 1 5.3 1 7 C-0.423125 7.5259375 -0.423125 7.5259375 -1.875 8.0625 C-5.34336062 9.7714341 -5.34336062 9.7714341 -6.375 13.6875 C-6.58125 14.780625 -6.7875 15.87375 -7 17 C-8.65 17.33 -10.3 17.66 -12 18 C-12 18.66 -12 19.32 -12 20 C-11.38125 20.12375 -10.7625 20.2475 -10.125 20.375 C-8 21 -8 21 -6 23 C-5.896875 23.804375 -5.79375 24.60875 -5.6875 25.4375 C-5.460625 26.283125 -5.23375 27.12875 -5 28 C-4.175 28.391875 -3.35 28.78375 -2.5 29.1875 C0 31 0 31 0.55078125 33.40625 C0.78947622 35.94282941 0.94743772 38.45311879 1 41 C1.66 41 2.32 41 3 41 C3.33 37.7 3.66 34.4 4 31 C4.99 31 5.98 31 7 31 C6.91621094 31.69867188 6.83242188 32.39734375 6.74609375 33.1171875 C6.64425781 34.02726562 6.54242188 34.93734375 6.4375 35.875 C6.33308594 36.77992187 6.22867188 37.68484375 6.12109375 38.6171875 C5.80325148 41.01653057 5.80325148 41.01653057 7 43 C2.50114053 43.86516528 -0.01647791 44.30903272 -4 42 C-3.91298828 41.11248047 -3.91298828 41.11248047 -3.82421875 40.20703125 C-3.46054487 34.71023033 -3.46054487 34.71023033 -6.4375 30.1875 C-7.7059375 29.1046875 -7.7059375 29.1046875 -9 28 C-9.2475 26.948125 -9.2475 26.948125 -9.5 25.875 C-9.85234349 23.69664981 -9.85234349 23.69664981 -12.5 22.4375 C-13.325 21.963125 -14.15 21.48875 -15 21 C-15.33 20.01 -15.66 19.02 -16 18 C-13.94766315 15.7522025 -12.99332739 14.9977758 -10 14 C-8.78130071 11.49552484 -8.78130071 11.49552484 -8 9 C-7.34 9 -6.68 9 -6 9 C-5.67 8.01 -5.34 7.02 -5 6 C-3.68 6 -2.36 6 -1 6 C-1.020625 5.195625 -1.04125 4.39125 -1.0625 3.5625 C-1 1 -1 1 0 0 Z " fill="#FFF181" transform="translate(48,19)"/>
<path d="M0 0 C1.65 0.33 3.3 0.66 5 1 C5 6.28 5 11.56 5 17 C3.02 17 1.04 17 -1 17 C-1.02684679 14.35409986 -1.04676357 11.70846904 -1.0625 9.0625 C-1.07087891 8.30775391 -1.07925781 7.55300781 -1.08789062 6.77539062 C-1.09652441 4.85005687 -1.05224333 2.92464419 -1 1 C-0.67 0.67 -0.34 0.34 0 0 Z " fill="#FEE53C" transform="translate(48,62)"/>
<path d="M0 0 C2.74084921 2.36709704 3.7367158 4.64405806 5 8 C6.10859375 7.97679687 7.2171875 7.95359375 8.359375 7.9296875 C9.82290992 7.91092423 11.28645214 7.89272463 12.75 7.875 C13.84441406 7.84986328 13.84441406 7.84986328 14.9609375 7.82421875 C18.8044624 7.78927761 21.74606772 7.82500316 25 10 C24.67 11.32 24.34 12.64 24 14 C13.605 14.495 13.605 14.495 3 15 C3.33 14.34 3.66 13.68 4 13 C7.63 13 11.26 13 15 13 C15 11.68 15 10.36 15 9 C10.71 9 6.42 9 2 9 C0 2.25 0 2.25 0 0 Z " fill="#FFC044" transform="translate(65,27)"/>
<path d="M0 0 C2.4375 0.375 2.4375 0.375 5 1 C6.37990015 3.75980029 5.80964386 5.47736532 5.3125 8.5 C5.16425781 9.4796875 5.01601563 10.459375 4.86328125 11.46875 C4 14 4 14 2.08984375 15.3359375 C-0.36493198 16.1159597 -2.43948457 16.14225086 -5 16 C-3.66666667 12.66666667 -2.33333333 9.33333333 -1 6 C0.65 6 2.3 6 4 6 C1.525 5.01 1.525 5.01 -1 4 C-0.67 2.68 -0.34 1.36 0 0 Z " fill="#FEE139" transform="translate(35,19)"/>
<path d="M0 0 C2.375 0.625 2.375 0.625 5 2 C5.71706982 3.98248715 6.38290413 5.98415349 7 8 C8.01126953 8.67675781 8.01126953 8.67675781 9.04296875 9.3671875 C11 11 11 11 11.390625 13.48046875 C11.32101563 14.82044922 11.32101563 14.82044922 11.25 16.1875 C11.21390625 17.08855469 11.1778125 17.98960938 11.140625 18.91796875 C11.07101563 19.94857422 11.07101563 19.94857422 11 21 C9.08203125 20.671875 9.08203125 20.671875 7 20 C5.08497845 15.9875739 4.74809359 13.25648179 6 9 C5.01 9 4.02 9 3 9 C3 8.34 3 7.68 3 7 C2.34 7 1.68 7 1 7 C0.67 4.69 0.34 2.38 0 0 Z " fill="#FEE13A" transform="translate(34,41)"/>
<path d="M0 0 C4.29 0 8.58 0 13 0 C13 1.32 13 2.64 13 4 C9.37 4.33 5.74 4.66 2 5 C1.34 6.65 0.68 8.3 0 10 C-0.66 10 -1.32 10 -2 10 C-2 10.66 -2 11.32 -2 12 C-3.65 12 -5.3 12 -7 12 C-6.25 9.125 -6.25 9.125 -5 6 C-2.9375 4.875 -2.9375 4.875 -1 4 C-0.67 2.68 -0.34 1.36 0 0 Z " fill="#FEE43B" transform="translate(67,36)"/>
<path d="M0 0 C7.26 0 14.52 0 22 0 C22.33 2.64 22.66 5.28 23 8 C23.66 8 24.32 8 25 8 C25 8.66 25 9.32 25 10 C25.99 10 26.98 10 28 10 C28 12.97 28 15.94 28 19 C27.67 18.34 27.34 17.68 27 17 C24.97536745 16.34786708 24.97536745 16.34786708 23 16 C22.87625 14.88625 22.7525 13.7725 22.625 12.625 C22.3534187 8.96896323 22.3534187 8.96896323 20 7 C20 5.35 20 3.7 20 2 C13.4 1.67 6.8 1.34 0 1 C0 0.67 0 0.34 0 0 Z " fill="#FEB765" transform="translate(12,40)"/>
<path d="M0 0 C0.33 0 0.66 0 1 0 C1.3732988 4.35515272 0.27682292 6.35708332 -2 10 C-2.70670728 12.69254991 -2.70670728 12.69254991 -3 15 C-3.99 15 -4.98 15 -6 15 C-6.33 15.99 -6.66 16.98 -7 18 C-7.33 18 -7.66 18 -8 18 C-8.02687279 16.18757948 -8.04633715 14.37504767 -8.0625 12.5625 C-8.07410156 11.55316406 -8.08570313 10.54382813 -8.09765625 9.50390625 C-8 7 -8 7 -7 6 C-5.33382885 5.95936168 -3.66611905 5.957279 -2 6 C-2 5.34 -2 4.68 -2 4 C-1.34 4 -0.68 4 0 4 C0 2.68 0 1.36 0 0 Z " fill="#FEBD63" transform="translate(67,42)"/>
<path d="M0 0 C0.99 0.33 1.98 0.66 3 1 C3.33 4.3 3.66 7.6 4 11 C4.66 11 5.32 11 6 11 C6.33 7.7 6.66 4.4 7 1 C7.99 1 8.98 1 10 1 C9.91621094 1.69867188 9.83242188 2.39734375 9.74609375 3.1171875 C9.64425781 4.02726562 9.54242188 4.93734375 9.4375 5.875 C9.33308594 6.77992187 9.22867188 7.68484375 9.12109375 8.6171875 C8.80325148 11.01653057 8.80325148 11.01653057 10 13 C3.375 14.25 3.375 14.25 0 12 C0.33 11.67 0.66 11.34 1 11 C0.91015699 9.14227838 0.75388139 7.28752015 0.5625 5.4375 C0.46066406 4.42558594 0.35882813 3.41367187 0.25390625 2.37109375 C0.17011719 1.58863281 0.08632813 0.80617187 0 0 Z " fill="#FFF08C" transform="translate(45,49)"/>
<path d="M0 0 C0.74958984 0.00451172 1.49917969 0.00902344 2.27148438 0.01367188 C4.11852383 0.02543646 5.96552213 0.04337135 7.8125 0.0625 C7.8125 0.3925 7.8125 0.7225 7.8125 1.0625 C4.5125 1.0625 1.2125 1.0625 -2.1875 1.0625 C-2.1875 2.3825 -2.1875 3.7025 -2.1875 5.0625 C-5.1575 5.0625 -8.1275 5.0625 -11.1875 5.0625 C-11.1875 3.7425 -11.1875 2.4225 -11.1875 1.0625 C-7.42449626 -0.19183458 -3.91539091 -0.04445422 0 0 Z " fill="#FFC23B" transform="translate(22.1875,34.9375)"/>
<path d="M0 0 C0.66 0 1.32 0 2 0 C2 3.63 2 7.26 2 11 C0.68 11.33 -0.64 11.66 -2 12 C-2.05395478 10.37536158 -2.09277195 8.75021459 -2.125 7.125 C-2.14820313 6.22007813 -2.17140625 5.31515625 -2.1953125 4.3828125 C-2 2 -2 2 0 0 Z " fill="#FEE73B" transform="translate(57,50)"/>
<path d="M0 0 C1.32 0 2.64 0 4 0 C4 3.3 4 6.6 4 10 C2.68 10 1.36 10 0 10 C0 6.7 0 3.4 0 0 Z " fill="#FFCA28" transform="translate(48,81)"/>
<path d="M0 0 C0.763125 0.20625 1.52625 0.4125 2.3125 0.625 C1.9825 2.275 1.6525 3.925 1.3125 5.625 C-0.0075 5.625 -1.3275 5.625 -2.6875 5.625 C-3.0175 6.285 -3.3475 6.945 -3.6875 7.625 C-4.3475 7.625 -5.0075 7.625 -5.6875 7.625 C-5.875 4.75 -5.875 4.75 -5.6875 1.625 C-2.6875 -0.375 -2.6875 -0.375 0 0 Z " fill="#FEE445" transform="translate(45.6875,20.375)"/>
<path d="M0 0 C0.66 0 1.32 0 2 0 C2 3.3 2 6.6 2 10 C-2 12 -2 12 -4.25 11.625 C-4.8275 11.41875 -5.405 11.2125 -6 11 C-4.35 10.34 -2.7 9.68 -1 9 C-1.020625 7.700625 -1.04125 6.40125 -1.0625 5.0625 C-1.08399454 3.70834367 -1.07148199 2.35243917 -1 1 C-0.67 0.67 -0.34 0.34 0 0 Z " fill="#FEC648" transform="translate(47,9)"/>
<path d="M0 0 C2.4375 0.375 2.4375 0.375 5 1 C6.35439668 3.70879335 6.06501451 6.00933268 6 9 C3.525 8.01 3.525 8.01 1 7 C0.67 4.69 0.34 2.38 0 0 Z " fill="#FEE139" transform="translate(60,26)"/>
<path d="M0 0 C3.00469351 2.59496258 3.36858796 3.9214699 5 8 C10.28 8 15.56 8 21 8 C21 8.33 21 8.66 21 9 C14.73 9 8.46 9 2 9 C0 2 0 2 0 0 Z " fill="#FEB464" transform="translate(65,27)"/>
<path d="M0 0 C-0.33 1.32 -0.66 2.64 -1 4 C-2.32 4.33 -3.64 4.66 -5 5 C-3.35 5 -1.7 5 0 5 C-0.66 5.66 -1.32 6.32 -2 7 C-4.125 6.625 -4.125 6.625 -6 6 C-6 4.68 -6 3.36 -6 2 C-6.66 2 -7.32 2 -8 2 C-6.14210462 -1.71579076 -3.44525918 -1.06921837 0 0 Z " fill="#FFBF6A" transform="translate(66,20)"/>
<path d="M0 0 C2.475 0.495 2.475 0.495 5 1 C5 3.97 5 6.94 5 10 C4.67 9.34 4.34 8.68 4 8 C1.97536745 7.34786708 1.97536745 7.34786708 0 7 C0 4.69 0 2.38 0 0 Z " fill="#FFBB74" transform="translate(35,49)"/>
<path d="M0 0 C2.4375 0.375 2.4375 0.375 5 1 C6.24546405 3.49092811 5.7767578 4.41080733 5 7 C3.35 7.33 1.7 7.66 0 8 C-0.33 7.34 -0.66 6.68 -1 6 C0.65 6 2.3 6 4 6 C1.525 5.01 1.525 5.01 -1 4 C-0.67 2.68 -0.34 1.36 0 0 Z " fill="#FFB57C" transform="translate(35,19)"/>
<path d="M0 0 C1.32 0.33 2.64 0.66 4 1 C3.01 5.95 2.02 10.9 1 16 C0.67 16 0.34 16 0 16 C0 10.72 0 5.44 0 0 Z " fill="#FEBC54" transform="translate(53,62)"/>
<path d="M0 0 C1.32 0 2.64 0 4 0 C4 5.28 4 10.56 4 16 C3.67 16 3.34 16 3 16 C2.01 10.72 1.02 5.44 0 0 Z " fill="#FEBC54" transform="translate(43,62)"/>
<path d="M0 0 C1.65 0 3.3 0 5 0 C5 0.66 5 1.32 5 2 C5.66 2 6.32 2 7 2 C7 3.32 7 4.64 7 6 C5.02 6 3.04 6 1 6 C0.67 4.02 0.34 2.04 0 0 Z " fill="#FEE03A" transform="translate(53,20)"/>
<path d="M0 0 C0.99 0.33 1.98 0.66 3 1 C3 3.64 3 6.28 3 9 C4.32 9.66 5.64 10.32 7 11 C5.02 11 3.04 11 1 11 C0.67 7.37 0.34 3.74 0 0 Z " fill="#FEB957" transform="translate(51,9)"/>
<path d="M0 0 C0.33 0.66 0.66 1.32 1 2 C0.175 2.639375 -0.65 3.27875 -1.5 3.9375 C-4.83579155 8.02384465 -4.4971834 10.92872936 -4 16 C-4.99 15.67 -5.98 15.34 -7 15 C-6.93999894 13.3739713 -6.8512115 11.74898451 -6.75 10.125 C-6.70359375 9.22007813 -6.6571875 8.31515625 -6.609375 7.3828125 C-6.40828125 6.59648438 -6.2071875 5.81015625 -6 5 C-4.078125 3.8671875 -4.078125 3.8671875 -2 3 C-1.34 2.01 -0.68 1.02 0 0 Z " fill="#FFEE59" transform="translate(60,45)"/>
<path d="M0 0 C1.98 0.495 1.98 0.495 4 1 C3.67 2.32 3.34 3.64 3 5 C1.68 5 0.36 5 -1 5 C-0.67 3.35 -0.34 1.7 0 0 Z " fill="#B084D2" transform="translate(65,56)"/>
<path d="M0 0 C1.98 0.495 1.98 0.495 4 1 C3.67 2.65 3.34 4.3 3 6 C1.68 5.34 0.36 4.68 -1 4 C-0.67 2.68 -0.34 1.36 0 0 Z " fill="#B084D2" transform="translate(32,56)"/>
<path d="M0 0 C1.98 0.66 3.96 1.32 6 2 C6.33 5.63 6.66 9.26 7 13 C6.01 12.67 5.02 12.34 4 12 C4.0825 10.7625 4.165 9.525 4.25 8.25 C4.2737948 4.89493302 4.19641677 4.24552096 2 1.5 C1.34 1.005 0.68 0.51 0 0 Z " fill="#FFEE59" transform="translate(40,48)"/>
<path d="M0 0 C0.66 0 1.32 0 2 0 C3.35439668 2.70879335 3.06501451 5.00933268 3 8 C2.01 8 1.02 8 0 8 C0 5.36 0 2.72 0 0 Z " fill="#FEE23E" transform="translate(49,11)"/>
<path d="M0 0 C1.98 0.495 1.98 0.495 4 1 C3.67 2.32 3.34 3.64 3 5 C1.68 4.67 0.36 4.34 -1 4 C-0.67 2.68 -0.34 1.36 0 0 Z " fill="#C587C7" transform="translate(66,15)"/>
<path d="M0 0 C1.98 0.495 1.98 0.495 4 1 C3.67 2.32 3.34 3.64 3 5 C1.68 4.67 0.36 4.34 -1 4 C-0.67 2.68 -0.34 1.36 0 0 Z " fill="#C587C7" transform="translate(31,15)"/>
<path d="M0 0 C1.43088528 2.86177057 0.59991697 4.93375773 0 8 C-1.32 8 -2.64 8 -4 8 C-2.87548273 5.0280615 -1.77706209 2.66559313 0 0 Z " fill="#FEB467" transform="translate(34,27)"/>
<path d="M0 0 C1.32 0 2.64 0 4 0 C3.67 1.65 3.34 3.3 3 5 C4.65 5 6.3 5 8 5 C7.34 5.66 6.68 6.32 6 7 C3.875 6.625 3.875 6.625 2 6 C2 4.68 2 3.36 2 2 C1.34 2 0.68 2 0 2 C0 1.34 0 0.68 0 0 Z " fill="#FFAB8D" transform="translate(58,20)"/>
<path d="M0 0 C0.66 0 1.32 0 2 0 C1.44271087 3.34373475 0.64826111 6.03312999 -1 9 C-1.09765625 2.84765625 -1.09765625 2.84765625 -1 1 C-0.67 0.67 -0.34 0.34 0 0 Z " fill="#FDB561" transform="translate(47,9)"/>
<path d="M0 0 C1.32 0 2.64 0 4 0 C4 1.32 4 2.64 4 4 C2.68 4 1.36 4 0 4 C0 2.68 0 1.36 0 0 Z " fill="#FFEB3B" transform="translate(48,94)"/>
<path d="M0 0 C0.99 0.33 1.98 0.66 3 1 C2.67 1.99 2.34 2.98 2 4 C1.01 3.67 0.02 3.34 -1 3 C-0.67 2.01 -0.34 1.02 0 0 Z " fill="#FFEB3B" transform="translate(93,36)"/>
<path d="M0 0 C0.99 0.33 1.98 0.66 3 1 C2.67 1.99 2.34 2.98 2 4 C1.01 3.67 0.02 3.34 -1 3 C-0.67 2.01 -0.34 1.02 0 0 Z " fill="#FFEB3B" transform="translate(5,36)"/>
<path d="M0 0 C0.66 0.33 1.32 0.66 2 1 C1.67 1.99 1.34 2.98 1 4 C0.34 3.67 -0.32 3.34 -1 3 C-0.67 2.01 -0.34 1.02 0 0 Z " fill="#4E6CEF" transform="translate(98,36)"/>
<path d="M0 0 C0.66 0.33 1.32 0.66 2 1 C1.67 1.99 1.34 2.98 1 4 C0.34 3.67 -0.32 3.34 -1 3 C-0.67 2.01 -0.34 1.02 0 0 Z " fill="#4E6CEF" transform="translate(1,36)"/>
</svg>
